<?xml version="1.0" encoding="UTF-8"?><svg id="Layer_1" xmlns="http://www.w3.org/2000/svg" width="1400" height="280" viewBox="0 0 1400 280"><defs><style>.cls-1{fill:#fff;}</style></defs><path class="cls-1" d="M109.35037,123.04684h-62.36607c-5.06575,0-9.29905,3.85579-9.77085,8.89952l-10.52141,112.47841c-.53841,5.75588,3.99011,10.72778,9.77112,10.72778h62.36596c5.06582,0,9.29917-3.85584,9.77097-8.89965l10.52126-112.47844c.5384-5.7558-3.99006-10.72762-9.77099-10.72762Z"/><path class="cls-1" d="M118.53597,24.84753h-62.36601c-5.06572,0-9.29912,3.85576-9.77095,8.89951l-5.34507,57.1412c-.53833,5.75596,3.99009,10.72764,9.77109,10.72764h62.36601c5.06572,0,9.29912-3.85576,9.77095-8.89951l5.34507-57.1412c.53833-5.75596-3.99009-10.72764-9.77109-10.72764Z"/><path class="cls-1" d="M209.16643,178.38394h-62.36601c-5.06587,0-9.29927,3.85591-9.77109,8.8998l-5.34492,57.14106c-.53848,5.75581,3.98994,10.72764,9.7708,10.72764h62.36615c5.06587,0,9.29927-3.85591,9.77095-8.89966l5.34507-57.1412c.53833-5.75566-3.99009-10.72764-9.77095-10.72764Z"/><path class="cls-1" d="M223.52834,24.84753h-62.36601c-5.06587,0-9.29927,3.85576-9.77109,8.89951l-10.52124,112.4786c-.53833,5.75566,3.99009,10.72764,9.77095,10.72764l62.36601-.00029c5.06587,0,9.29912-3.85576,9.77109-8.89951l10.52124-112.47831c.53833-5.75596-3.99009-10.72764-9.77095-10.72764Z"/><path class="cls-1" d="M267.13087,25.40783c-5.42197-.62051-10.28599,3.40737-10.79414,8.84106l-5.30039,56.66308c-.5373,5.74307,3.98115,10.70391,9.74941,10.70391l61.77494-.00015c5.51191,0,10.05146-4.55361,9.79599-10.05952-1.60518-34.59755-28.51889-61.9478-65.22582-66.14838Z"/><path class="cls-1" d="M318.42501,123.04888h-61.47612c-5.05459,0-9.27847,3.84727-9.74927,8.87988l-5.279,56.43559c-.59092,6.31641,4.88467,11.47778,11.16973,10.61587,35.72695-4.90005,66.09755-30.78398,74.82348-63.64277,1.64766-6.20464-3.06914-12.28857-9.48882-12.28857Z"/><path class="cls-1" d="M533.86044,64.01205c-10.57212-6.81093-23.15428-10.26456-37.39645-10.26456-14.34729,0-27.66314,3.46708-39.57684,10.30598-11.92095,6.842-21.63044,16.67162-28.85819,29.21546-7.18374,12.46203-11.61908,27.0273-13.18331,43.28987l-.88748,9.22174c-1.20696,15.7044.71558,29.84612,5.71375,42.03062,5.05099,12.32016,12.96325,21.93645,23.51725,28.58273,10.50584,6.61625,23.08904,9.97045,37.40008,9.97045,14.27272,0,27.51143-3.44844,39.34798-10.25006,11.84069-6.80472,21.53051-16.63227,28.80123-29.21235,7.22413-12.50242,11.67811-27.05009,13.2356-43.23706l.72179-7.5058c1.46326-16.00368-.31481-30.43225-5.28451-42.88497-5.02251-12.58009-12.94564-22.42524-23.5509-29.26206ZM483.53802,190.41769c-9.45578,0-16.00109-3.74047-20.01029-11.43682-4.207-8.06915-5.59103-19.95126-4.11483-35.29114l1.25459-11.89351c3.78863-28.25549,14.53006-41.99024,32.83736-41.99024,9.10265,0,15.53715,3.66591,19.67114,11.20589,4.31729,7.8755,5.74741,19.75968,4.24997,35.32324l-.72076,7.48095c-1.53989,15.25807-5.2959,27.04905-11.16188,35.04675-5.70132,7.77505-12.89956,11.55487-22.00531,11.55487Z"/><polygon class="cls-1" points="665.49985 163.20813 641.41563 55.98432 585.32613 55.98432 569.14848 224.12752 613.73074 224.12752 617.62138 183.7041 620.45883 123.95594 644.91896 224.12752 674.68431 224.12752 718.00836 124.75747 709.54984 183.0693 705.595 224.12752 750.29014 224.12752 766.46779 55.98432 710.11008 55.98432 665.49985 163.20813"/><path class="cls-1" d="M883.12149,60.26225c-9.19688-4.32246-19.9668-6.51476-32.00839-6.51476-12.27149,0-23.6907,1.99761-33.93973,5.93691-10.35569,3.98176-18.74068,9.6515-24.92303,16.85284-6.25483,7.28937-9.89175,15.81831-10.80823,25.35072-1.84953,19.22119,7.89621,34.47408,28.9576,45.32994,6.27969,3.25893,14.50521,6.65871,24.44667,10.10508,9.52516,3.30657,16.12277,6.49198,19.60746,9.4651,3.08392,2.63552,4.3556,6.28279,3.88752,11.15204-.41319,4.29243-2.26272,7.52237-5.6542,9.87415-3.56443,2.46983-8.36636,3.72183-14.27221,3.72183-9.36258,0-15.9229-1.82467-19.49976-5.42534-3.51058-3.53129-4.90756-9.30769-4.15159-17.16973l.2796-2.90477h-44.69514l-.2299,2.39734c-1.08113,11.23695.8357,21.33478,5.69459,30.01181,4.87028,8.70085,12.77167,15.62155,23.4867,20.57261,10.54209,4.87442,22.7473,7.34632,36.27493,7.34632,19.18494,0,34.95665-4.26447,46.87812-12.67536,12.1234-8.5538,19.00268-20.48562,20.4442-35.46512,1.81121-18.83181-6.13471-33.78957-23.61614-44.45592-6.97248-4.26033-16.11034-8.27834-27.16089-11.94218-10.55141-3.49712-17.86667-6.87721-21.74176-10.04916-3.44844-2.81985-4.97176-5.77951-4.65799-9.04569.38523-4.00454,2.38906-7.23966,6.12539-9.89072,3.88442-2.75565,9.10679-4.15263,15.5211-4.15263,6.18027,0,10.92732,1.58753,14.10962,4.71805,3.14192,3.09324,4.39495,7.44056,3.8316,13.29152l-.2796,2.90477h44.47146l.2299-2.39734c1.00347-10.4261-.8502-19.85289-5.50715-28.01731-4.65592-8.16132-11.75474-14.52903-21.10075-18.92502Z"/><path class="cls-1" d="M1036.14021,64.01205c-10.57212-6.81093-23.15428-10.26456-37.39645-10.26456-14.3478,0-27.66314,3.46708-39.57633,10.30598-11.92147,6.84304-21.63096,16.67265-28.85923,29.21546-7.18374,12.46307-11.61908,27.0273-13.18279,43.28987l-.88645,9.22174c-1.20851,15.70336.71351,29.84509,5.7122,42.03062,5.05047,12.32016,12.96325,21.93645,23.51776,28.58273,10.50584,6.61625,23.08904,9.97045,37.4006,9.97045,14.27221,0,27.51092-3.44844,39.34746-10.25006,11.84069-6.80472,21.53051-16.63227,28.80123-29.21235,7.22413-12.50242,11.67811-27.05009,13.2356-43.23706l.72179-7.5058c1.46326-16.00368-.31481-30.43225-5.28451-42.88497-5.02251-12.58009-12.94564-22.42524-23.5509-29.26206ZM985.81779,190.41769c-9.45578,0-16.00161-3.74047-20.01029-11.43682-4.20752-8.06811-5.59103-19.95023-4.11431-35.29114l1.25407-11.89351c3.78915-28.25549,14.53006-41.99024,32.83684-41.99024,9.10265,0,15.53767,3.66591,19.67166,11.20589,4.31729,7.8755,5.74741,19.75968,4.24997,35.32324l-.72076,7.48095c-1.53989,15.25807-5.2959,27.04905-11.16136,35.04675-5.70184,7.77505-12.90008,11.55487-22.00583,11.55487Z"/><path class="cls-1" d="M1199.87707,69.46535c-10.50895-8.94524-25.90993-13.48103-45.77731-13.48103h-66.49386l-16.17765,168.1432h44.58226l5.54236-57.59833h17.05167l23.20088,57.59833h46.25056l.45669-4.74187-26.94653-64.02506c9.47027-4.65385,16.86423-10.65911,22.00065-17.87599,5.55065-7.79576,8.93799-17.69994,10.06676-29.43811,1.58546-16.479-3.0425-29.45986-13.75649-38.58114ZM1128.77493,91.48361h22.42006c6.53444,0,11.30634,1.70558,14.18315,5.07118,2.91616,3.41013,4.0905,8.3094,3.48987,14.56009-.60995,6.33561-2.76807,11.30116-6.41328,14.75582-3.61517,3.42359-8.85515,5.1592-15.57495,5.1592h-21.91056l3.80571-39.54629Z"/><path class="cls-1" d="M1288.81584,164.06869h27.2893l-2.04525,21.24987c-4.8972,3.68145-11.93493,5.54651-20.94127,5.54651-11.01741,0-18.46212-3.57582-22.75973-10.9325-4.46019-7.63525-5.9597-19.42312-4.45812-35.03743l.94651-9.82962c1.50986-14.95361,5.24515-26.55405,11.10233-34.47926,5.69563-7.70567,12.85555-11.45132,21.88881-11.45132,7.46231,0,13.05748,1.71283,16.63123,5.09086,3.5696,3.37595,5.59621,9.32115,6.02494,17.66991l.12945,2.5154h42.98542l-.01346-2.66452c-.09631-19.10935-5.6511-33.74711-16.50903-43.50734-10.78338-9.68982-26.8264-14.60359-47.68586-14.60359-14.27428,0-27.35558,3.37388-38.88353,10.02948-11.53313,6.65871-20.94127,16.28432-27.96139,28.60862-6.97352,12.23628-11.3053,26.72181-12.87833,43.07551l-1.24993,14.17176c-1.37938,23.87814,3.96416,42.84458,15.88355,56.37221,11.966,13.58355,29.19889,20.47112,51.21819,20.47112,14.09202,0,27.44775-2.11774,39.69645-6.29315,12.35848-4.21269,22.14563-9.88347,29.09016-16.85491l.66898-.67312,6.80576-70.73037h-71.8726l-3.10256,32.25589Z"/></svg>