<svg width="128" height="47" viewBox="0 0 128 47" fill="none" xmlns="http://www.w3.org/2000/svg">
<g clip-path="url(#clip0_2729_21)">
<path d="M46.3391 17.2031L41.6543 29.6291H43.6335L44.7855 26.3751H50.3759L51.5279 29.6291H53.5071L48.8207 17.2031H46.3407H46.3391ZM49.7631 24.7011H45.3967L46.1759 22.501C46.3727 21.9541 46.5663 21.4057 46.7599 20.8589C46.9247 20.3933 47.0879 19.9278 47.2559 19.4622C47.2559 19.4638 47.5807 18.52 47.5807 18.52L47.9087 19.4622L49.7631 24.7027V24.7011Z" fill="currentColor"></path>
<path d="M65.8684 23.4161C65.8684 19.6424 63.4748 17.2031 59.7724 17.2031H55.1436V29.6291H59.7724C63.4748 29.6291 65.8684 27.1898 65.8684 23.4161ZM63.926 23.4161C63.926 26.2046 62.334 27.9376 59.7724 27.9376H57.0156V18.8947H59.7724C62.334 18.8947 63.926 20.6277 63.926 23.4161Z" fill="currentColor"></path>
<path d="M88.5886 25.2256L88.603 26.9443L82.3038 17.2589L82.267 17.2031H79.8926V29.6291H81.7646V21.5875L81.7502 19.872L88.0494 29.5717L88.0862 29.6291H90.443V17.2031H88.5886V25.2256Z" fill="currentColor"></path>
<path d="M98.6233 16.9414C95.6873 16.9414 92.5273 18.9678 92.5273 23.4159C92.5273 27.864 95.6873 29.8903 98.6233 29.8903C101.559 29.8903 104.719 27.864 104.719 23.4159C104.719 18.9678 101.559 16.9414 98.6233 16.9414ZM98.6233 18.633C101.147 18.633 102.777 20.5095 102.777 23.4159C102.777 26.3223 101.147 28.1988 98.6233 28.1988C96.1001 28.1988 94.4697 26.3223 94.4697 23.4159C94.4697 20.5095 96.1001 18.633 98.6233 18.633Z" fill="currentColor"></path>
<path d="M111.258 17.2031H106.629V29.6291H111.258C114.96 29.6291 117.354 27.1898 117.354 23.4161C117.354 19.6424 114.962 17.2031 111.258 17.2031ZM115.411 23.4161C115.411 26.2046 113.819 27.9376 111.258 27.9376H108.501V18.8947H111.258C113.819 18.8947 115.411 20.6277 115.411 23.4161Z" fill="currentColor"></path>
<path d="M121.226 27.9376V24.2531H127.301V22.5616H121.226V18.8947H127.982V17.2031H119.336V29.6291H128V27.9376H121.226Z" fill="currentColor"></path>
<path d="M61.758 40.1789C63.4604 39.7914 64.4716 38.6212 64.4716 37.0269C64.4716 34.8906 62.7452 33.5625 59.9644 33.5625H55.1436V45.9885H57.0156V40.9601H60.2892L63.702 45.9885H65.6764L65.5484 45.7956C62.9164 41.8529 62.0652 40.579 61.758 40.1789ZM62.5292 37.1656C62.5292 38.9178 60.6972 39.286 59.1612 39.286H57.0156V35.2541H59.9468C61.6124 35.2541 62.5292 35.9332 62.5292 37.1656Z" fill="currentColor"></path>
<path d="M72.18 33.3008C69.244 33.3008 66.084 35.3271 66.084 39.7752C66.084 44.2233 69.244 46.2497 72.18 46.2497C75.116 46.2497 78.276 44.2233 78.276 39.7752C78.276 35.3271 75.116 33.3008 72.18 33.3008ZM72.18 34.9923C74.7032 34.9923 76.3336 36.8688 76.3336 39.7752C76.3336 42.6817 74.7032 44.5581 72.18 44.5581C69.6568 44.5581 68.0264 42.6817 68.0264 39.7752C68.0264 36.8688 69.6568 34.9923 72.18 34.9923Z" fill="currentColor"></path>
<path d="M88.5645 41.1498C88.5645 43.2208 86.9181 44.5584 85.2061 44.5584C83.4941 44.5584 81.7597 43.2208 81.7597 41.1498V33.5625H79.8877V41.1849C79.8877 44.2619 82.2045 46.2499 85.2077 46.2499C88.2109 46.2499 90.4381 44.2619 90.4381 41.1849V33.5625H88.5661V41.1498H88.5645Z" fill="currentColor"></path>
<path d="M98.0032 33.5625H92.6592V45.9885H94.5312V40.9601H98.0032C100.811 40.9601 102.336 39.5491 102.336 37.2756C102.336 35.0022 100.805 33.5625 98.0032 33.5625ZM100.394 37.2581C100.394 38.7344 99.4288 39.2988 97.8112 39.2988H94.5312V35.2541H97.8112C99.4032 35.2541 100.394 35.7929 100.394 37.2581Z" fill="currentColor"></path>
<path d="M46.7357 40.9621H50.9725C50.7421 42.55 49.2733 44.5445 47.0221 44.5445C44.5565 44.5445 42.8477 42.5883 42.8477 39.7616C42.8477 36.9349 44.4909 34.9962 47.0365 34.9962C48.6509 34.9962 49.9261 35.7631 50.5053 36.9716L52.3597 36.4758C51.6157 34.7172 49.8813 33.3047 47.0365 33.3047C43.3117 33.3047 40.9053 35.8396 40.9053 39.7616C40.9053 43.6836 43.2989 46.2536 46.8621 46.2536C48.9005 46.2536 50.5133 45.4166 51.3069 43.6374L51.3197 45.9762H52.9997V39.2897H46.7373V40.9637L46.7357 40.9621Z" fill="currentColor"></path>
<path d="M78.1262 23.4161C78.1262 19.6424 75.7326 17.2031 72.0302 17.2031H67.4014V29.6291H72.0302C75.7326 29.6291 78.1262 27.1898 78.1262 23.4161ZM76.1838 23.4161C76.1838 26.2046 74.5918 27.9376 72.0302 27.9376H69.2734V18.8947H72.0302C74.5918 18.8947 76.1838 20.6277 76.1838 23.4161Z" fill="currentColor"></path>
<path d="M27.3452 16.0929L24.7036 16.0626C22.5596 15.9462 20.9484 15.5285 18.9932 14.1415C16.326 12.2458 15.2236 9.43986 14.9164 7.21581C14.742 5.96109 14.4044 4.60594 13.7404 3.52978C12.4268 1.40458 10.1404 0 7.42839 0C3.33879 0 0.0651908 3.0499 -0.00040915 7.41191C-0.0212091 8.77663 0.529191 10.693 1.75959 12.1677C3.08919 13.7636 5.36599 14.7776 7.38519 14.7776C12.2284 14.7776 14.6876 14.615 17.4604 17.3779C19.118 19.0296 19.9516 21.3094 19.9516 23.5C19.9516 25.6906 19.118 27.9704 17.4604 29.6221C14.6876 32.385 12.1532 32.2224 7.38519 32.2224C5.36599 32.2224 3.08919 33.2364 1.75959 34.8323C0.529191 36.3086 -0.0196091 38.225 -0.00040915 39.5897C0.0651908 43.9517 3.33719 47.0016 7.42839 47.0016C10.1404 47.0016 12.4268 45.597 13.7388 43.4734C14.4044 42.3973 14.742 41.0437 14.9148 39.7874C15.2236 37.5633 16.3244 34.7558 18.9916 32.8617C20.9468 31.4731 22.558 31.0554 24.702 30.9406L27.3436 30.9103C31.4332 30.9103 34.7724 27.5782 34.7724 23.5032C34.7724 19.4282 31.4332 16.0961 27.3436 16.0961L27.3452 16.0929Z" fill="currentColor"></path>
</g>
<defs>
<clipPath id="clip0_2729_21">
<rect width="128" height="47" fill="white"></rect>
</clipPath>
</defs>
</svg>